@startuml

!includesub ../../../../doc/dependencies/primitive/object.puml!OBJECT

!startsub RENDERENGINE

namespace engine {

    cds.Object <|-- RenderObject

    abstract class RenderObject {
        + {abstract} RenderObject clear ()
    }

    RenderObject <|-- RenderEngine

    abstract class RenderEngine {
        - _renderInstanceSurfaceCallbacks : RenderInstanceSurfaceCallbacks
        # RenderInstanceSurfaceCallbacks renderInstanceSurfaceCallbacks () const
        + RenderEngine setRenderSurfaceCallbacks ( RenderInstanceSurfaceCallbacks )
        + {abstract} StringLiteral name () const
        + {abstract} RenderEngine init ()
    }

}

!endsub

@enduml